<svg xmlns="http://www.w3.org/2000/svg" width="1180" height="860" viewBox="0 0 1180 860">
<rect width="100%" height="100%" fill="#fff"/>
<text x="40" y="44" font-family="Segoe UI, Arial, sans-serif" font-size="28" font-weight="700" fill="#222">Selected methods vs baselines</text>
<text x="40" y="70" font-family="Segoe UI, Arial, sans-serif" font-size="14" fill="#555">24-episode incident-recovery evaluation: two selected Decision Order methods against three standard baselines</text>
<text x="40" y="82" font-family="Segoe UI, Arial, sans-serif" font-size="17" font-weight="700" fill="#222">Success rate (higher is better)</text>
<line x1="120" y1="246.0" x2="1140" y2="246.0" stroke="#e6e6e6"/>
<text x="110" y="250.0" text-anchor="end" font-family="Segoe UI, Arial, sans-serif" font-size="11" fill="#666">0.00</text>
<line x1="120" y1="207.5" x2="1140" y2="207.5" stroke="#e6e6e6"/>
<text x="110" y="211.5" text-anchor="end" font-family="Segoe UI, Arial, sans-serif" font-size="11" fill="#666">0.22</text>
<line x1="120" y1="169.0" x2="1140" y2="169.0" stroke="#e6e6e6"/>
<text x="110" y="173.0" text-anchor="end" font-family="Segoe UI, Arial, sans-serif" font-size="11" fill="#666">0.44</text>
<line x1="120" y1="130.5" x2="1140" y2="130.5" stroke="#e6e6e6"/>
<text x="110" y="134.5" text-anchor="end" font-family="Segoe UI, Arial, sans-serif" font-size="11" fill="#666">0.67</text>
<line x1="120" y1="92.0" x2="1140" y2="92.0" stroke="#e6e6e6"/>
<text x="110" y="96.0" text-anchor="end" font-family="Segoe UI, Arial, sans-serif" font-size="11" fill="#666">0.89</text>
<rect x="120.0" y="108.5" width="192.8" height="137.5" fill="#e15759" rx="2"/>
<text x="216.4" y="104.0" text-anchor="middle" font-family="Segoe UI, Arial, sans-serif" font-size="12" fill="#222">0.79</text>
<rect x="326.8" y="108.5" width="192.8" height="137.5" fill="#4e79a7" rx="2"/>
<text x="423.2" y="104.0" text-anchor="middle" font-family="Segoe UI, Arial, sans-serif" font-size="12" fill="#222">0.79</text>
<rect x="533.6" y="123.0" width="192.8" height="123.0" fill="#59a14f" rx="2"/>
<text x="630.0" y="118.0" text-anchor="middle" font-family="Segoe UI, Arial, sans-serif" font-size="12" fill="#222">0.71</text>
<rect x="740.4" y="246.0" width="192.8" height="0.0" fill="#9c9c9c" rx="2"/>
<text x="836.8" y="241.0" text-anchor="middle" font-family="Segoe UI, Arial, sans-serif" font-size="12" fill="#222">0.00</text>
<rect x="947.2" y="159.2" width="192.8" height="86.8" fill="#76b7b2" rx="2"/>
<text x="1043.6" y="154.2" text-anchor="middle" font-family="Segoe UI, Arial, sans-serif" font-size="12" fill="#222">0.50</text>
<text x="40" y="274" font-family="Segoe UI, Arial, sans-serif" font-size="17" font-weight="700" fill="#222">Mean TTR, success only (lower is better)</text>
<line x1="120" y1="438.0" x2="1140" y2="438.0" stroke="#e6e6e6"/>
<text x="110" y="442.0" text-anchor="end" font-family="Segoe UI, Arial, sans-serif" font-size="11" fill="#666">0</text>
<line x1="120" y1="399.5" x2="1140" y2="399.5" stroke="#e6e6e6"/>
<text x="110" y="403.5" text-anchor="end" font-family="Segoe UI, Arial, sans-serif" font-size="11" fill="#666">117</text>
<line x1="120" y1="361.0" x2="1140" y2="361.0" stroke="#e6e6e6"/>
<text x="110" y="365.0" text-anchor="end" font-family="Segoe UI, Arial, sans-serif" font-size="11" fill="#666">235</text>
<line x1="120" y1="322.5" x2="1140" y2="322.5" stroke="#e6e6e6"/>
<text x="110" y="326.5" text-anchor="end" font-family="Segoe UI, Arial, sans-serif" font-size="11" fill="#666">352</text>
<line x1="120" y1="284.0" x2="1140" y2="284.0" stroke="#e6e6e6"/>
<text x="110" y="288.0" text-anchor="end" font-family="Segoe UI, Arial, sans-serif" font-size="11" fill="#666">469</text>
<rect x="120.0" y="301.1" width="192.8" height="136.9" fill="#e15759" rx="2"/>
<text x="216.4" y="296.1" text-anchor="middle" font-family="Segoe UI, Arial, sans-serif" font-size="12" fill="#222">417</text>
<rect x="326.8" y="310.6" width="192.8" height="127.4" fill="#4e79a7" rx="2"/>
<text x="423.2" y="305.6" text-anchor="middle" font-family="Segoe UI, Arial, sans-serif" font-size="12" fill="#222">388</text>
<rect x="533.6" y="303.9" width="192.8" height="134.1" fill="#59a14f" rx="2"/>
<text x="630.0" y="298.9" text-anchor="middle" font-family="Segoe UI, Arial, sans-serif" font-size="12" fill="#222">409</text>
<rect x="740.4" y="438.0" width="192.8" height="0.0" fill="#9c9c9c" rx="2"/>
<text x="836.8" y="433.0" text-anchor="middle" font-family="Segoe UI, Arial, sans-serif" font-size="12" fill="#222">nan</text>
<rect x="947.2" y="300.5" width="192.8" height="137.5" fill="#76b7b2" rx="2"/>
<text x="1043.6" y="296.0" text-anchor="middle" font-family="Segoe UI, Arial, sans-serif" font-size="12" fill="#222">419</text>
<text x="40" y="466" font-family="Segoe UI, Arial, sans-serif" font-size="17" font-weight="700" fill="#222">Mean queue excess area (lower is better)</text>
<line x1="120" y1="630.0" x2="1140" y2="630.0" stroke="#e6e6e6"/>
<text x="110" y="634.0" text-anchor="end" font-family="Segoe UI, Arial, sans-serif" font-size="11" fill="#666">0</text>
<line x1="120" y1="591.5" x2="1140" y2="591.5" stroke="#e6e6e6"/>
<text x="110" y="595.5" text-anchor="end" font-family="Segoe UI, Arial, sans-serif" font-size="11" fill="#666">19405</text>
<line x1="120" y1="553.0" x2="1140" y2="553.0" stroke="#e6e6e6"/>
<text x="110" y="557.0" text-anchor="end" font-family="Segoe UI, Arial, sans-serif" font-size="11" fill="#666">38811</text>
<line x1="120" y1="514.5" x2="1140" y2="514.5" stroke="#e6e6e6"/>
<text x="110" y="518.5" text-anchor="end" font-family="Segoe UI, Arial, sans-serif" font-size="11" fill="#666">58216</text>
<line x1="120" y1="476.0" x2="1140" y2="476.0" stroke="#e6e6e6"/>
<text x="110" y="480.0" text-anchor="end" font-family="Segoe UI, Arial, sans-serif" font-size="11" fill="#666">77622</text>
<rect x="120.0" y="593.9" width="192.8" height="36.1" fill="#e15759" rx="2"/>
<text x="216.4" y="588.9" text-anchor="middle" font-family="Segoe UI, Arial, sans-serif" font-size="12" fill="#222">18209</text>
<rect x="326.8" y="593.8" width="192.8" height="36.2" fill="#4e79a7" rx="2"/>
<text x="423.2" y="588.8" text-anchor="middle" font-family="Segoe UI, Arial, sans-serif" font-size="12" fill="#222">18249</text>
<rect x="533.6" y="589.4" width="192.8" height="40.6" fill="#59a14f" rx="2"/>
<text x="630.0" y="584.4" text-anchor="middle" font-family="Segoe UI, Arial, sans-serif" font-size="12" fill="#222">20462</text>
<rect x="740.4" y="492.5" width="192.8" height="137.5" fill="#9c9c9c" rx="2"/>
<text x="836.8" y="488.0" text-anchor="middle" font-family="Segoe UI, Arial, sans-serif" font-size="12" fill="#222">69305</text>
<rect x="947.2" y="568.9" width="192.8" height="61.1" fill="#76b7b2" rx="2"/>
<text x="1043.6" y="563.9" text-anchor="middle" font-family="Segoe UI, Arial, sans-serif" font-size="12" fill="#222">30815</text>
<text x="40" y="658" font-family="Segoe UI, Arial, sans-serif" font-size="17" font-weight="700" fill="#222">Mean throughput recovery (higher is better)</text>
<line x1="120" y1="822.0" x2="1140" y2="822.0" stroke="#e6e6e6"/>
<text x="110" y="826.0" text-anchor="end" font-family="Segoe UI, Arial, sans-serif" font-size="11" fill="#666">0.00</text>
<line x1="120" y1="783.5" x2="1140" y2="783.5" stroke="#e6e6e6"/>
<text x="110" y="787.5" text-anchor="end" font-family="Segoe UI, Arial, sans-serif" font-size="11" fill="#666">0.33</text>
<line x1="120" y1="745.0" x2="1140" y2="745.0" stroke="#e6e6e6"/>
<text x="110" y="749.0" text-anchor="end" font-family="Segoe UI, Arial, sans-serif" font-size="11" fill="#666">0.65</text>
<line x1="120" y1="706.5" x2="1140" y2="706.5" stroke="#e6e6e6"/>
<text x="110" y="710.5" text-anchor="end" font-family="Segoe UI, Arial, sans-serif" font-size="11" fill="#666">0.98</text>
<line x1="120" y1="668.0" x2="1140" y2="668.0" stroke="#e6e6e6"/>
<text x="110" y="672.0" text-anchor="end" font-family="Segoe UI, Arial, sans-serif" font-size="11" fill="#666">1.30</text>
<rect x="120.0" y="684.5" width="192.8" height="137.5" fill="#e15759" rx="2"/>
<text x="216.4" y="680.0" text-anchor="middle" font-family="Segoe UI, Arial, sans-serif" font-size="12" fill="#222">1.16</text>
<text x="216.4" y="842.0" text-anchor="middle" font-family="Segoe UI, Arial, sans-serif" font-size="12" fill="#333">
<tspan x="216.4" dy="0">Checkerboard</tspan>
<tspan x="216.4" dy="14">ckpt</tspan>
<tspan x="216.4" dy="14">20</tspan>
</text>
<rect x="326.8" y="686.9" width="192.8" height="135.1" fill="#4e79a7" rx="2"/>
<text x="423.2" y="681.9" text-anchor="middle" font-family="Segoe UI, Arial, sans-serif" font-size="12" fill="#222">1.14</text>
<text x="423.2" y="842.0" text-anchor="middle" font-family="Segoe UI, Arial, sans-serif" font-size="12" fill="#333">
<tspan x="423.2" dy="0">Random</tspan>
<tspan x="423.2" dy="14">zero</tspan>
</text>
<rect x="533.6" y="686.2" width="192.8" height="135.8" fill="#59a14f" rx="2"/>
<text x="630.0" y="681.2" text-anchor="middle" font-family="Segoe UI, Arial, sans-serif" font-size="12" fill="#222">1.15</text>
<text x="630.0" y="842.0" text-anchor="middle" font-family="Segoe UI, Arial, sans-serif" font-size="12" fill="#333">
<tspan x="630.0" dy="0">Greedy</tspan>
</text>
<rect x="740.4" y="713.4" width="192.8" height="108.6" fill="#9c9c9c" rx="2"/>
<text x="836.8" y="708.4" text-anchor="middle" font-family="Segoe UI, Arial, sans-serif" font-size="12" fill="#222">0.92</text>
<text x="836.8" y="842.0" text-anchor="middle" font-family="Segoe UI, Arial, sans-serif" font-size="12" fill="#333">
<tspan x="836.8" dy="0">Fixed</tspan>
<tspan x="836.8" dy="14">time</tspan>
</text>
<rect x="947.2" y="696.8" width="192.8" height="125.2" fill="#76b7b2" rx="2"/>
<text x="1043.6" y="691.8" text-anchor="middle" font-family="Segoe UI, Arial, sans-serif" font-size="12" fill="#222">1.06</text>
<text x="1043.6" y="842.0" text-anchor="middle" font-family="Segoe UI, Arial, sans-serif" font-size="12" fill="#333">
<tspan x="1043.6" dy="0">Max</tspan>
<tspan x="1043.6" dy="14">pressure</tspan>
</text>
</svg>